<?xml version="1.0" encoding="UTF-8"?>
<svg version="1.1" xmlns="http://www.w3.org/2000/svg" width="512" height="512">
<path d="M0 0 C1.16090149 0.00007553 2.32180298 0.00015106 3.5178833 0.00022888 C4.76591736 0.00539017 6.01395142 0.01055145 7.29980469 0.01586914 C8.5815155 0.01728409 9.86322632 0.01869904 11.18377686 0.02015686 C14.58351609 0.02396639 17.98321229 0.03378325 21.38293457 0.04486084 C24.85521869 0.05510865 28.32750979 0.05966169 31.79980469 0.06469727 C38.60711398 0.07540698 45.41439476 0.09246455 52.22167969 0.11352539 C53.34320068 4.86096191 53.34320068 4.86096191 52.24951172 7.1340332 C51.74790527 7.77179688 51.24629883 8.40956055 50.72949219 9.06665039 C49.91931641 10.11852539 49.91931641 10.11852539 49.09277344 11.19165039 C48.5165625 11.90836914 47.94035156 12.62508789 47.34667969 13.36352539 C46.77820313 14.09571289 46.20972656 14.82790039 45.62402344 15.58227539 C41.63016183 20.70504325 41.63016183 20.70504325 40.22167969 22.11352539 C37.19360924 22.27388099 34.18582515 22.37312987 31.15527344 22.42993164 C30.24665054 22.45071274 29.33802765 22.47149384 28.40187073 22.49290466 C25.48772023 22.55850211 22.57347665 22.61733219 19.65917969 22.67602539 C17.68846678 22.71920093 15.71776342 22.7628149 13.74707031 22.80688477 C8.90536981 22.91419382 4.06357532 23.01543214 -0.77832031 23.11352539 C-1.10832031 23.77352539 -1.43832031 24.43352539 -1.77832031 25.11352539 C-0.88113281 25.09257812 0.01605469 25.07163086 0.94042969 25.05004883 C4.30267827 24.98144923 7.66417204 24.93152245 11.02685547 24.89379883 C12.47586886 24.87381244 13.92480294 24.84661342 15.37353516 24.81176758 C30.43297405 24.45889306 30.43297405 24.45889306 37.22167969 29.11352539 C41.82133675 34.40313101 41.82090601 39.53248853 41.60839844 46.39868164 C40.85464275 53.63930448 39.30951968 60.43680746 34.78417969 66.23852539 C28.63722153 70.73629965 24.1660794 72.22907706 16.54516602 72.25878906 C14.87367241 72.26835884 14.87367241 72.26835884 13.16841125 72.27812195 C11.97556015 72.27923477 10.78270905 72.2803476 9.55371094 72.28149414 C7.70697029 72.28648674 7.70697029 72.28648674 5.82292175 72.2915802 C3.22480645 72.29663704 0.62668467 72.29898891 -1.97143555 72.29882812 C-4.63991027 72.30029602 -7.30792447 72.30575943 -9.97631836 72.31933594 C-13.82052901 72.33756617 -17.66453964 72.34256002 -21.50878906 72.34399414 C-22.70771286 72.35117966 -23.90663666 72.35836517 -25.14189148 72.36576843 C-26.24676407 72.3626918 -27.35163666 72.35961517 -28.48999023 72.35644531 C-29.46530197 72.35787033 -30.44061371 72.35929535 -31.44548035 72.36076355 C-33.77832031 72.11352539 -33.77832031 72.11352539 -35.77832031 70.11352539 C-35.40433307 67.11004888 -34.23671558 64.9937492 -32.56347656 62.51196289 C-32.12455078 61.85711914 -31.685625 61.20227539 -31.23339844 60.52758789 C-30.77384766 59.85469727 -30.31429688 59.18180664 -29.84082031 58.48852539 C-29.15729492 57.46758789 -29.15729492 57.46758789 -28.45996094 56.42602539 C-26.67588941 53.78256948 -25.03962971 51.37483479 -22.77832031 49.11352539 C-20.90536499 48.87301636 -20.90536499 48.87301636 -18.60400391 48.88647461 C-17.312892 48.8867012 -17.312892 48.8867012 -15.99569702 48.88693237 C-15.06544708 48.89725494 -14.13519714 48.90757751 -13.17675781 48.91821289 C-12.22515778 48.92104279 -11.27355774 48.92387268 -10.29312134 48.92678833 C-7.24639439 48.9380055 -4.19995878 48.96311276 -1.15332031 48.98852539 C0.90917545 48.99855321 2.97167581 49.0076794 5.03417969 49.01586914 C10.09679236 49.03794985 15.15918659 49.07249009 20.22167969 49.11352539 C20.22167969 48.12352539 20.22167969 47.13352539 20.22167969 46.11352539 C19.31925537 46.13447266 18.41683105 46.15541992 17.48706055 46.17700195 C14.11179219 46.24551771 10.73727173 46.29548823 7.36157227 46.33325195 C5.90572385 46.35326362 4.44995475 46.38048216 2.99438477 46.4152832 C-12.08566106 46.76658266 -12.08566106 46.76658266 -17.77832031 42.11352539 C-23.15788995 35.45984716 -23.03244827 29.69237588 -22.27050781 21.46899414 C-21.04663265 13.12527377 -18.27402934 7.78281511 -11.77832031 2.39086914 C-8.00810777 -0.01705958 -4.3968114 -0.00955829 0 0 Z " fill="#CE1B1F" transform="translate(331.7783203125,214.886474609375)"/>
<path d="M0 0 C0.81482346 -0.01283524 1.62964691 -0.02567047 2.46916199 -0.03889465 C3.34728043 -0.04628159 4.22539886 -0.05366852 5.13012695 -0.0612793 C6.49365044 -0.07338692 6.49365044 -0.07338692 7.88471985 -0.08573914 C9.81049702 -0.09957079 11.7362986 -0.11029706 13.66210938 -0.11816406 C16.59008071 -0.13533195 19.5169094 -0.17922069 22.44458008 -0.22338867 C24.31892076 -0.23352013 26.19327102 -0.24203482 28.06762695 -0.2487793 C28.93562424 -0.26628738 29.80362152 -0.28379547 30.69792175 -0.30183411 C36.56888397 -0.28115481 41.04227793 0.82791235 45.9309082 4.17700195 C50.68411563 9.40553012 50.67607427 15.26937863 50.38012695 22.11450195 C49.91637809 28.44330992 48.89260975 34.67942957 47.8059082 40.92700195 C47.61843018 42.05074219 47.43095215 43.17448242 47.23779297 44.33227539 C45.6819071 52.59076494 43.35265609 62.25910141 36.8269043 68.04125977 C30.87297603 72.06398368 24.89013007 72.33949925 17.84887695 72.38012695 C17.07586746 72.38582703 16.30285797 72.3915271 15.50642395 72.3973999 C13.87506464 72.4068173 12.2436866 72.41337088 10.61230469 72.41723633 C8.13678227 72.42693 5.66209511 72.45797853 3.18676758 72.48950195 C1.59497559 72.49603444 0.00317771 72.50128395 -1.58862305 72.50512695 C-2.31910355 72.51747375 -3.04958405 72.52982056 -3.80220032 72.5425415 C-10.36304488 72.51457329 -15.77812692 71.06953816 -20.9440918 66.80200195 C-26.19594684 60.31441631 -25.83728565 53.1526162 -25.0690918 45.17700195 C-24.47563188 40.61347505 -23.73565868 36.08504372 -22.9440918 31.55200195 C-22.75645264 30.42068848 -22.56881348 29.289375 -22.37548828 28.1237793 C-20.70305247 19.15504093 -18.08705132 8.67226571 -10.3815918 2.98950195 C-6.72626717 0.98941866 -4.10075425 0.05643332 0 0 Z M-0.0690918 24.17700195 C-1.1139307 26.16997412 -1.1139307 26.16997412 -1.43237305 28.5715332 C-1.67890625 29.88154297 -1.67890625 29.88154297 -1.93041992 31.21801758 C-2.07930664 32.13260742 -2.22819336 33.04719727 -2.3815918 33.98950195 C-2.54981445 34.89249023 -2.71803711 35.79547852 -2.89135742 36.72583008 C-3.66324194 41.01372736 -4.0690918 44.78075996 -4.0690918 49.17700195 C5.1709082 49.17700195 14.4109082 49.17700195 23.9309082 49.17700195 C28.19022422 36.47166233 28.19022422 36.47166233 28.9309082 23.17700195 C26.47576926 20.72186301 19.97876745 21.99149582 16.6809082 21.98950195 C15.1050293 21.97113281 15.1050293 21.97113281 13.49731445 21.95239258 C12.48024414 21.95045898 11.46317383 21.94852539 10.4152832 21.9465332 C9.01874512 21.94036987 9.01874512 21.94036987 7.59399414 21.93408203 C4.6121261 22.20608045 2.54623476 22.70717989 -0.0690918 24.17700195 Z " fill="#CD1C21" transform="translate(258.069091796875,214.822998046875)"/>
<path d="M0 0 C1.86352539 -0.35644531 1.86352539 -0.35644531 4.09765625 -0.328125 C4.89880859 -0.32296875 5.69996094 -0.3178125 6.52539062 -0.3125 C7.36263672 -0.291875 8.19988281 -0.27125 9.0625 -0.25 C9.90361328 -0.24484375 10.74472656 -0.2396875 11.61132812 -0.234375 C17.84600765 -0.15399235 17.84600765 -0.15399235 19 1 C19.31816971 6.72705484 18.591433 11.87497847 17.4375 17.484375 C16.88577255 20.23124366 16.88577255 20.23124366 17 24 C20.56106907 19.99261746 24.03748461 15.9706162 27.3046875 11.71875 C36.20453493 0.86234085 36.20453493 0.86234085 43.18066406 -0.72265625 C50.48956525 -1.38198048 57.73025375 -0.90437035 65 0 C65.99 1.98 65.99 1.98 67 4 C65.91138672 5.08667969 65.91138672 5.08667969 64.80078125 6.1953125 C63.06369958 7.93481687 61.33104865 9.67877282 59.60546875 11.4296875 C55.20978674 15.87507835 50.77496532 20.19371581 46.02734375 24.26171875 C43.65925551 26.2921605 41.32922935 28.36263267 39 30.4375 C38.236875 31.11683594 37.47375 31.79617187 36.6875 32.49609375 C36.130625 32.99238281 35.57375 33.48867187 35 34 C39.0385738 39.5666828 43.34502273 44.82651289 47.80737305 50.05249023 C51.47527082 54.35544576 55.0329746 58.73560051 58.5390625 63.171875 C59.87135478 64.90833802 59.87135478 64.90833802 61 66 C61.04063832 67.66617115 61.042721 69.33388095 61 71 C57.01948202 72.99025899 52.06452497 72.31631959 47.6875 72.375 C46.64142578 72.41238281 45.59535156 72.44976562 44.51757812 72.48828125 C36.82137149 72.57646185 36.82137149 72.57646185 33.22265625 70.05078125 C32.48917969 69.04402344 31.75570312 68.03726563 31 67 C29.83009413 65.54658986 28.65802205 64.09492202 27.484375 62.64453125 C26.23598742 61.03663965 24.99126959 59.42589294 23.75 57.8125 C23.11320312 56.99330078 22.47640625 56.17410156 21.8203125 55.33007812 C17.14074248 49.28148496 17.14074248 49.28148496 16 47 C13.97536745 46.34786708 13.97536745 46.34786708 12 46 C11.87882812 47.05058594 11.75765625 48.10117187 11.6328125 49.18359375 C9.82325122 64.50466753 9.82325122 64.50466753 8 71 C4.85489907 72.57255046 1.51234555 72.22572668 -1.9375 72.25 C-2.66646484 72.270625 -3.39542969 72.29125 -4.14648438 72.3125 C-9.4719086 72.35154986 -9.4719086 72.35154986 -11.76586914 70.82446289 C-13.57336547 68.15237187 -13.0231461 66.6367014 -12.46875 63.48046875 C-12.25863281 62.2279834 -12.04851562 60.97549805 -11.83203125 59.68505859 C-11.70199707 58.95687927 -11.57196289 58.22869995 -11.43798828 57.47845459 C-10.94090324 54.66558779 -10.47520428 51.84838145 -10.01171875 49.02978516 C-9.06770024 43.31328195 -8.09596711 37.60190291 -7.11376953 31.8918457 C-6.49507833 28.28379808 -5.88624593 24.67416395 -5.27734375 21.06445312 C-4.88341954 18.76812495 -4.48890982 16.47189712 -4.09375 14.17578125 C-3.91348267 13.09774734 -3.73321533 12.01971344 -3.54748535 10.90901184 C-3.28711487 9.4155146 -3.28711487 9.4155146 -3.02148438 7.8918457 C-2.87207397 7.01695999 -2.72266357 6.14207428 -2.56872559 5.24067688 C-2 3 -2 3 0 0 Z " fill="#CC1B20" transform="translate(153,215)"/>
<path d="M0 0 C1.16090149 0.00007553 2.32180298 0.00015106 3.5178833 0.00022888 C4.76591736 0.00539017 6.01395142 0.01055145 7.29980469 0.01586914 C8.5815155 0.01728409 9.86322632 0.01869904 11.18377686 0.02015686 C14.58351609 0.02396639 17.98321229 0.03378325 21.38293457 0.04486084 C24.85521869 0.05510865 28.32750979 0.05966169 31.79980469 0.06469727 C38.60711398 0.07540698 45.41439476 0.09246455 52.22167969 0.11352539 C53.34320068 4.86096191 53.34320068 4.86096191 52.24951172 7.1340332 C51.74790527 7.77179688 51.24629883 8.40956055 50.72949219 9.06665039 C49.91931641 10.11852539 49.91931641 10.11852539 49.09277344 11.19165039 C48.5165625 11.90836914 47.94035156 12.62508789 47.34667969 13.36352539 C46.77820313 14.09571289 46.20972656 14.82790039 45.62402344 15.58227539 C41.63016183 20.70504325 41.63016183 20.70504325 40.22167969 22.11352539 C37.19360924 22.27388099 34.18582515 22.37312987 31.15527344 22.42993164 C30.24665054 22.45071274 29.33802765 22.47149384 28.40187073 22.49290466 C25.48772023 22.55850211 22.57347665 22.61733219 19.65917969 22.67602539 C17.68846678 22.71920093 15.71776342 22.7628149 13.74707031 22.80688477 C8.90536981 22.91419382 4.06357532 23.01543214 -0.77832031 23.11352539 C-1.10832031 23.77352539 -1.43832031 24.43352539 -1.77832031 25.11352539 C-0.88113281 25.09257812 0.01605469 25.07163086 0.94042969 25.05004883 C4.30267827 24.98144923 7.66417204 24.93152245 11.02685547 24.89379883 C12.47586886 24.87381244 13.92480294 24.84661342 15.37353516 24.81176758 C30.43297405 24.45889306 30.43297405 24.45889306 37.22167969 29.11352539 C41.82133675 34.40313101 41.82090601 39.53248853 41.60839844 46.39868164 C40.85464275 53.63930448 39.30951968 60.43680746 34.78417969 66.23852539 C28.63722153 70.73629965 24.1660794 72.22907706 16.54516602 72.25878906 C14.87367241 72.26835884 14.87367241 72.26835884 13.16841125 72.27812195 C11.97556015 72.27923477 10.78270905 72.2803476 9.55371094 72.28149414 C7.70697029 72.28648674 7.70697029 72.28648674 5.82292175 72.2915802 C3.22480645 72.29663704 0.62668467 72.29898891 -1.97143555 72.29882812 C-4.63991027 72.30029602 -7.30792447 72.30575943 -9.97631836 72.31933594 C-13.82052901 72.33756617 -17.66453964 72.34256002 -21.50878906 72.34399414 C-22.70771286 72.35117966 -23.90663666 72.35836517 -25.14189148 72.36576843 C-26.24676407 72.3626918 -27.35163666 72.35961517 -28.48999023 72.35644531 C-29.46530197 72.35787033 -30.44061371 72.35929535 -31.44548035 72.36076355 C-33.77832031 72.11352539 -33.77832031 72.11352539 -35.77832031 70.11352539 C-35.40433307 67.11004888 -34.23671558 64.9937492 -32.56347656 62.51196289 C-32.12455078 61.85711914 -31.685625 61.20227539 -31.23339844 60.52758789 C-30.77384766 59.85469727 -30.31429688 59.18180664 -29.84082031 58.48852539 C-29.15729492 57.46758789 -29.15729492 57.46758789 -28.45996094 56.42602539 C-26.67588941 53.78256948 -25.03962971 51.37483479 -22.77832031 49.11352539 C-20.90536499 48.87301636 -20.90536499 48.87301636 -18.60400391 48.88647461 C-17.312892 48.8867012 -17.312892 48.8867012 -15.99569702 48.88693237 C-15.06544708 48.89725494 -14.13519714 48.90757751 -13.17675781 48.91821289 C-12.22515778 48.92104279 -11.27355774 48.92387268 -10.29312134 48.92678833 C-7.24639439 48.9380055 -4.19995878 48.96311276 -1.15332031 48.98852539 C0.90917545 48.99855321 2.97167581 49.0076794 5.03417969 49.01586914 C10.09679236 49.03794985 15.15918659 49.07249009 20.22167969 49.11352539 C20.22167969 48.12352539 20.22167969 47.13352539 20.22167969 46.11352539 C19.31925537 46.13447266 18.41683105 46.15541992 17.48706055 46.17700195 C14.11179219 46.24551771 10.73727173 46.29548823 7.36157227 46.33325195 C5.90572385 46.35326362 4.44995475 46.38048216 2.99438477 46.4152832 C-12.08566106 46.76658266 -12.08566106 46.76658266 -17.77832031 42.11352539 C-23.15788995 35.45984716 -23.03244827 29.69237588 -22.27050781 21.46899414 C-21.04663265 13.12527377 -18.27402934 7.78281511 -11.77832031 2.39086914 C-8.00810777 -0.01705958 -4.3968114 -0.00955829 0 0 Z M-15.77832031 8.11352539 C-20.70473405 16.05237455 -21.46705466 23.88448509 -20.77832031 33.11352539 C-19.14627836 37.92375431 -16.9932511 40.33401771 -12.77832031 43.11352539 C-9.2405468 43.73617503 -9.2405468 43.73617503 -5.36035156 43.68774414 C-4.66189621 43.70190872 -3.96344086 43.7160733 -3.24382019 43.73066711 C-1.02599455 43.77239702 1.1910176 43.7877776 3.40917969 43.80102539 C5.63767625 43.83009796 7.86596854 43.86462197 10.09431458 43.90351868 C12.1082306 43.93621917 14.12236804 43.954307 16.13647461 43.97167969 C19.22167969 44.11352539 19.22167969 44.11352539 21.22167969 45.11352539 C21.22167969 47.09352539 21.22167969 49.07352539 21.22167969 51.11352539 C19.91086426 51.0600293 18.60004883 51.0065332 17.24951172 50.95141602 C12.34791863 50.77297996 7.44943623 50.70191751 2.54492188 50.66186523 C0.4300295 50.62989969 -1.68464342 50.56948597 -3.79785156 50.47924805 C-15.41381651 49.57090135 -15.41381651 49.57090135 -25.75891113 53.7409668 C-28.92678635 57.47903676 -33.77832031 64.01378153 -33.77832031 69.11352539 C-26.05898619 69.18317281 -18.33968484 69.23641131 -10.62010765 69.26896191 C-7.03519939 69.28458818 -3.45050681 69.30577019 0.13427734 69.33984375 C3.59670494 69.37254668 7.05892565 69.39040125 10.52149582 69.39815712 C12.47905048 69.40636132 14.43652245 69.42976332 16.39395142 69.45341492 C17.59474335 69.45364151 18.79553528 69.4538681 20.03271484 69.45410156 C21.08528473 69.4607634 22.13785461 69.46742523 23.22232056 69.47428894 C27.64444683 68.94239466 30.91420541 67.12214841 34.40917969 64.42602539 C40.15810143 57.0911942 40.94593543 46.82420751 39.97167969 37.79711914 C39.02479888 33.88278151 37.56593592 31.31584047 34.22167969 29.11352539 C26.33586717 26.37539604 17.71107304 26.95829842 9.48364258 27.09887695 C8.16481079 27.11966309 8.16481079 27.11966309 6.81933594 27.14086914 C5.63609741 27.1678186 5.63609741 27.1678186 4.42895508 27.1953125 C2.22121187 27.11350806 0.33748198 26.72911377 -1.77832031 26.11352539 C-2.27332031 23.63852539 -2.27332031 23.63852539 -2.77832031 21.11352539 C1.43908708 19.91782466 5.48186093 20.08768648 9.82714844 20.18383789 C11.55043893 20.19474368 13.27375206 20.20245358 14.99707031 20.20727539 C17.70016107 20.21511257 20.39779713 20.23819902 23.09985352 20.31567383 C33.85979796 20.88171343 33.85979796 20.88171343 43.36083984 16.72973633 C45.63771946 13.95728157 47.45353472 11.22839504 49.22167969 8.11352539 C49.78781982 7.37763184 50.35395996 6.64173828 50.93725586 5.88354492 C52.41745138 4.20822954 52.41745138 4.20822954 52.22167969 2.11352539 C44.53534786 2.06267217 36.84905969 2.02772743 29.16259766 2.00366211 C26.54962543 1.99362591 23.93666438 1.97999404 21.32373047 1.96264648 C17.56051876 1.93829376 13.79745602 1.92701819 10.03417969 1.91821289 C8.29152832 1.90272903 8.29152832 1.90272903 6.51367188 1.88693237 C-5.72421299 1.83564159 -5.72421299 1.83564159 -15.77832031 8.11352539 Z " fill="#0A0101" transform="translate(331.7783203125,214.886474609375)"/>
<path d="M0 0 C1.86352539 -0.35644531 1.86352539 -0.35644531 4.09765625 -0.328125 C4.89880859 -0.32296875 5.69996094 -0.3178125 6.52539062 -0.3125 C7.36263672 -0.291875 8.19988281 -0.27125 9.0625 -0.25 C9.90361328 -0.24484375 10.74472656 -0.2396875 11.61132812 -0.234375 C17.84600765 -0.15399235 17.84600765 -0.15399235 19 1 C19.31816971 6.72705484 18.591433 11.87497847 17.4375 17.484375 C16.88577255 20.23124366 16.88577255 20.23124366 17 24 C20.56106907 19.99261746 24.03748461 15.9706162 27.3046875 11.71875 C36.20453493 0.86234085 36.20453493 0.86234085 43.18066406 -0.72265625 C50.48956525 -1.38198048 57.73025375 -0.90437035 65 0 C65.99 1.98 65.99 1.98 67 4 C65.91138672 5.08667969 65.91138672 5.08667969 64.80078125 6.1953125 C63.06369958 7.93481687 61.33104865 9.67877282 59.60546875 11.4296875 C55.20978674 15.87507835 50.77496532 20.19371581 46.02734375 24.26171875 C43.65925551 26.2921605 41.32922935 28.36263267 39 30.4375 C38.236875 31.11683594 37.47375 31.79617187 36.6875 32.49609375 C36.130625 32.99238281 35.57375 33.48867187 35 34 C39.0385738 39.5666828 43.34502273 44.82651289 47.80737305 50.05249023 C51.47527082 54.35544576 55.0329746 58.73560051 58.5390625 63.171875 C59.87135478 64.90833802 59.87135478 64.90833802 61 66 C61.04063832 67.66617115 61.042721 69.33388095 61 71 C57.01948202 72.99025899 52.06452497 72.31631959 47.6875 72.375 C46.64142578 72.41238281 45.59535156 72.44976562 44.51757812 72.48828125 C36.82137149 72.57646185 36.82137149 72.57646185 33.22265625 70.05078125 C32.48917969 69.04402344 31.75570312 68.03726563 31 67 C29.83009413 65.54658986 28.65802205 64.09492202 27.484375 62.64453125 C26.23598742 61.03663965 24.99126959 59.42589294 23.75 57.8125 C23.11320312 56.99330078 22.47640625 56.17410156 21.8203125 55.33007812 C17.14074248 49.28148496 17.14074248 49.28148496 16 47 C13.97536745 46.34786708 13.97536745 46.34786708 12 46 C11.87882812 47.05058594 11.75765625 48.10117187 11.6328125 49.18359375 C9.82325122 64.50466753 9.82325122 64.50466753 8 71 C4.85489907 72.57255046 1.51234555 72.22572668 -1.9375 72.25 C-2.66646484 72.270625 -3.39542969 72.29125 -4.14648438 72.3125 C-9.4719086 72.35154986 -9.4719086 72.35154986 -11.76586914 70.82446289 C-13.57336547 68.15237187 -13.0231461 66.6367014 -12.46875 63.48046875 C-12.25863281 62.2279834 -12.04851562 60.97549805 -11.83203125 59.68505859 C-11.70199707 58.95687927 -11.57196289 58.22869995 -11.43798828 57.47845459 C-10.94090324 54.66558779 -10.47520428 51.84838145 -10.01171875 49.02978516 C-9.06770024 43.31328195 -8.09596711 37.60190291 -7.11376953 31.8918457 C-6.49507833 28.28379808 -5.88624593 24.67416395 -5.27734375 21.06445312 C-4.88341954 18.76812495 -4.48890982 16.47189712 -4.09375 14.17578125 C-3.91348267 13.09774734 -3.73321533 12.01971344 -3.54748535 10.90901184 C-3.28711487 9.4155146 -3.28711487 9.4155146 -3.02148438 7.8918457 C-2.87207397 7.01695999 -2.72266357 6.14207428 -2.56872559 5.24067688 C-2 3 -2 3 0 0 Z M0 2 C-2.85610893 17.31360532 -5.66893489 32.63304245 -8.38745117 47.97167969 C-8.68292847 49.6369873 -8.68292847 49.6369873 -8.984375 51.3359375 C-9.15678711 52.31095215 -9.32919922 53.2859668 -9.50683594 54.29052734 C-9.81924304 56.00691054 -10.16730528 57.71749897 -10.56347656 59.41650391 C-11.1943721 62.71367517 -11.1943721 62.71367517 -11 69 C-5.06 69 0.88 69 7 69 C7.66974585 65.22968967 8.33592642 61.45880973 9 57.6875 C9.19078125 56.61564453 9.3815625 55.54378906 9.578125 54.43945312 C9.84882813 52.89741211 9.84882813 52.89741211 10.125 51.32421875 C10.29257813 50.37635498 10.46015625 49.42849121 10.6328125 48.4519043 C11.07405225 45.91872183 11.07405225 45.91872183 11 43 C14.01231237 43.32545568 15.59069638 43.59323198 17.7734375 45.76245117 C18.30195313 46.51502197 18.83046875 47.26759277 19.375 48.04296875 C19.96796875 48.86990234 20.5609375 49.69683594 21.171875 50.54882812 C22.07679688 51.8549707 22.07679688 51.8549707 23 53.1875 C24.7903273 55.71423329 26.58412204 58.23676086 28.40551758 60.74121094 C30 63 30 63 31.1003418 64.93847656 C32.21970488 66.90893182 32.21970488 66.90893182 35 69 C39.29626325 69.71911867 43.47263507 69.56464116 47.8125 69.375 C48.98232422 69.34792969 50.15214844 69.32085937 51.35742188 69.29296875 C54.24016135 69.22237105 57.11913571 69.12380574 60 69 C56.30255191 64.04125793 52.57231235 59.11321623 48.75 54.25 C48.2854541 53.65799805 47.8209082 53.06599609 47.34228516 52.45605469 C43.29673347 47.32557825 39.12272015 42.31197897 34.8984375 37.328125 C33 35 33 35 32 33 C32.59296875 32.73574219 33.1859375 32.47148437 33.796875 32.19921875 C36.08029054 30.95629575 37.47426723 29.69598354 39.25 27.8125 C41.60818885 25.38480664 43.99480611 23.07980782 46.5625 20.875 C50.60293644 17.37862233 54.5617496 13.79809825 58.5 10.1875 C59.45434937 9.32390869 59.45434937 9.32390869 60.42797852 8.44287109 C61.99082686 7.00296256 63.50052605 5.50579196 65 4 C65 3.34 65 2.68 65 2 C56.88381194 0.3036906 46.72456352 -1.49541181 39.2723999 3.05487061 C31.59583306 8.80021536 25.28683865 16.36508789 19.1628418 23.68334961 C17 26 17 26 14 27 C14.20496094 25.94941406 14.40992188 24.89882812 14.62109375 23.81640625 C16.02030252 16.5567684 17.34177736 9.37209358 18 2 C12.06 2 6.12 2 0 2 Z " fill="#060303" transform="translate(153,215)"/>
<path d="M0 0 C1.66869141 -0.00193359 1.66869141 -0.00193359 3.37109375 -0.00390625 C4.53769531 -0.00003906 5.70429688 0.00382813 6.90625 0.0078125 C8.07285156 0.00394531 9.23945313 0.00007812 10.44140625 -0.00390625 C11.55386719 -0.00261719 12.66632813 -0.00132812 13.8125 0 C14.83666016 0.00112793 15.86082031 0.00225586 16.91601562 0.00341797 C19.40625 0.1328125 19.40625 0.1328125 21.40625 1.1328125 C20.57968515 14.37960181 20.57968515 14.37960181 18.40625 20.1328125 C15.76627351 21.45280075 13.76547683 21.26237282 10.8125 21.265625 C9.14380859 21.26755859 9.14380859 21.26755859 7.44140625 21.26953125 C6.27480469 21.26566406 5.10820312 21.26179688 3.90625 21.2578125 C2.73964844 21.26167969 1.57304687 21.26554687 0.37109375 21.26953125 C-0.74136719 21.26824219 -1.85382813 21.26695312 -3 21.265625 C-4.02416016 21.26449707 -5.04832031 21.26336914 -6.10351562 21.26220703 C-8.59375 21.1328125 -8.59375 21.1328125 -10.59375 20.1328125 C-11.04141166 13.56710818 -9.73073108 7.34770242 -7.59375 1.1328125 C-4.95377351 -0.18717575 -2.95297683 0.00325218 0 0 Z " fill="#CC191E" transform="translate(212.59375,239.8671875)"/>
<path d="M0 0 C0.81482346 -0.01283524 1.62964691 -0.02567047 2.46916199 -0.03889465 C3.34728043 -0.04628159 4.22539886 -0.05366852 5.13012695 -0.0612793 C6.49365044 -0.07338692 6.49365044 -0.07338692 7.88471985 -0.08573914 C9.81049702 -0.09957079 11.7362986 -0.11029706 13.66210938 -0.11816406 C16.59008071 -0.13533195 19.5169094 -0.17922069 22.44458008 -0.22338867 C24.31892076 -0.23352013 26.19327102 -0.24203482 28.06762695 -0.2487793 C28.93562424 -0.26628738 29.80362152 -0.28379547 30.69792175 -0.30183411 C36.56888397 -0.28115481 41.04227793 0.82791235 45.9309082 4.17700195 C50.68411563 9.40553012 50.67607427 15.26937863 50.38012695 22.11450195 C49.91637809 28.44330992 48.89260975 34.67942957 47.8059082 40.92700195 C47.61843018 42.05074219 47.43095215 43.17448242 47.23779297 44.33227539 C45.6819071 52.59076494 43.35265609 62.25910141 36.8269043 68.04125977 C30.87297603 72.06398368 24.89013007 72.33949925 17.84887695 72.38012695 C17.07586746 72.38582703 16.30285797 72.3915271 15.50642395 72.3973999 C13.87506464 72.4068173 12.2436866 72.41337088 10.61230469 72.41723633 C8.13678227 72.42693 5.66209511 72.45797853 3.18676758 72.48950195 C1.59497559 72.49603444 0.00317771 72.50128395 -1.58862305 72.50512695 C-2.31910355 72.51747375 -3.04958405 72.52982056 -3.80220032 72.5425415 C-10.36304488 72.51457329 -15.77812692 71.06953816 -20.9440918 66.80200195 C-26.19594684 60.31441631 -25.83728565 53.1526162 -25.0690918 45.17700195 C-24.47563188 40.61347505 -23.73565868 36.08504372 -22.9440918 31.55200195 C-22.75645264 30.42068848 -22.56881348 29.289375 -22.37548828 28.1237793 C-20.70305247 19.15504093 -18.08705132 8.67226571 -10.3815918 2.98950195 C-6.72626717 0.98941866 -4.10075425 0.05643332 0 0 Z M-12.3737793 7.0871582 C-19.18327563 16.42057232 -20.49795919 25.92197924 -22.0690918 37.17700195 C-22.24569336 38.1205957 -22.42229492 39.06418945 -22.60424805 40.03637695 C-23.18103683 43.93333647 -23.3297309 47.74248833 -23.3815918 51.67700195 C-23.4105957 52.41047852 -23.43959961 53.14395508 -23.46948242 53.8996582 C-23.53004631 59.10815216 -22.64675749 62.14248674 -19.0690918 66.17700195 C-13.90470998 69.4910728 -9.5135451 69.63079873 -3.5769043 69.6105957 C-2.67213348 69.61583755 -1.76736267 69.62107941 -0.83517456 69.6264801 C1.07268247 69.63288314 2.98057907 69.63158563 4.88842773 69.62304688 C7.79003092 69.61454846 10.68965599 69.64330314 13.59106445 69.67504883 C15.45174095 69.67666148 17.3124209 69.67608209 19.1730957 69.6730957 C20.03168182 69.68432968 20.89026794 69.69556366 21.77487183 69.70713806 C29.13687529 69.62300785 34.44050892 67.66740124 39.6809082 62.42700195 C43.46150639 56.46431354 44.53103209 49.00327956 45.9309082 42.17700195 C46.08333984 41.44497559 46.23577148 40.71294922 46.39282227 39.95874023 C50.27623395 23.1621131 50.27623395 23.1621131 45.9309082 7.17700195 C39.97909394 2.3648968 35.19882202 2.01543333 27.76293945 1.97387695 C26.96869064 1.96817688 26.17444183 1.96247681 25.35612488 1.956604 C23.67590662 1.94717123 21.99567 1.94062687 20.31542969 1.93676758 C17.76960078 1.9271014 15.22459336 1.89607882 12.67895508 1.86450195 C-0.66087725 1.45339602 -0.66087725 1.45339602 -12.3737793 7.0871582 Z " fill="#0F0505" transform="translate(258.069091796875,214.822998046875)"/>
<path d="M0 0 C0.66 0 1.32 0 2 0 C1.67 1.32 1.34 2.64 1 4 C1.8971875 3.97905273 2.794375 3.95810547 3.71875 3.93652344 C7.08099859 3.86792384 10.44249235 3.81799706 13.80517578 3.78027344 C15.25418917 3.76028705 16.70312325 3.73308803 18.15185547 3.69824219 C33.21129437 3.34536767 33.21129437 3.34536767 40 8 C44.59965706 13.28960562 44.59922633 18.41896314 44.38671875 25.28515625 C43.63296306 32.52577909 42.08783999 39.32328207 37.5625 45.125 C31.39993452 49.63419425 26.9357693 51.13078052 19.29174805 51.11352539 C18.17096359 51.11344986 17.05017914 51.11337433 15.89543152 51.11329651 C14.6963063 51.10813522 13.49718109 51.10297394 12.26171875 51.09765625 C11.02581497 51.0962413 9.78991119 51.09482635 8.51655579 51.09336853 C5.24341655 51.08872618 1.97032713 51.07975311 -1.30279541 51.06866455 C-4.64782248 51.05840404 -7.99285173 51.05394631 -11.33789062 51.04882812 C-17.8919465 51.03780907 -24.44596918 51.02107836 -31 51 C-31.33 50.34 -31.66 49.68 -32 49 C-30.95882774 48.99120064 -30.95882774 48.99120064 -29.8966217 48.98222351 C-23.32109407 48.92406333 -16.74588339 48.85185551 -10.17067814 48.76428509 C-6.79113766 48.71975971 -3.41171278 48.68046594 -0.03198242 48.65356445 C3.86308611 48.61986885 7.75753703 48.56754295 11.65234375 48.51171875 C12.8526976 48.50532883 14.05305145 48.4989389 15.28977966 48.49235535 C22.91286003 48.36005192 30.00285442 47.84007713 36.375 43.3125 C41.7336417 35.68674065 42.82128302 25.77277228 41.71484375 16.6484375 C40.86484229 13.29128887 39.64405984 11.18104475 37 9 C29.2856807 6.12633922 20.44155091 6.85920448 12.35009766 7.07348633 C7.7704749 7.16234971 4.15354026 7.22449018 0 5 C0 3.35 0 1.7 0 0 Z " fill="#0D0303" transform="translate(329,236)"/>
<path d="M0 0 C1.22223518 -0.01902626 1.22223518 -0.01902626 2.46916199 -0.03843689 C3.78633965 -0.03403343 3.78633965 -0.03403343 5.13012695 -0.02954102 C6.03914261 -0.03478287 6.94815826 -0.04002472 7.88471985 -0.04542542 C9.81050598 -0.05185134 11.73633132 -0.05050125 13.66210938 -0.04199219 C16.59032509 -0.03352844 19.51655948 -0.06215978 22.44458008 -0.09399414 C24.31892846 -0.09560757 26.19328026 -0.09502592 28.06762695 -0.09204102 C28.93562424 -0.10327499 29.80362152 -0.11450897 30.69792175 -0.12608337 C36.55468588 -0.05993474 41.05086655 1.06816957 45.9309082 4.40405273 C50.68411563 9.6325809 50.67607427 15.49642941 50.38012695 22.34155273 C49.91637809 28.6703607 48.89260975 34.90648036 47.8059082 41.15405273 C47.52469116 42.83966309 47.52469116 42.83966309 47.23779297 44.55932617 C45.5197554 53.67850106 42.89378832 64.12277821 34.8684082 69.65405273 C31.8260791 71.23653102 29.39967769 71.94604797 25.9309082 71.40405273 C28.5997567 68.45252246 31.266357 67.24904196 34.89575195 65.75952148 C43.27383283 60.17949449 43.97758892 47.14294467 45.84887695 37.96655273 C49.20888939 22.28131142 49.20888939 22.28131142 44.9309082 7.40405273 C40.72667241 4.1700252 36.74537175 3.27518667 31.52954102 3.29052734 C30.66895081 3.29060287 29.8083606 3.29067841 28.92169189 3.29075623 C28.00176453 3.29591751 27.08183716 3.3010788 26.1340332 3.30639648 C25.18526306 3.30781143 24.23649292 3.30922638 23.25897217 3.3106842 C20.23291858 3.31627532 17.20693937 3.32882621 14.1809082 3.34155273 C12.12752386 3.34656888 10.07413835 3.35113159 8.02075195 3.35522461 C2.99077544 3.36624184 -2.03914557 3.3835004 -7.0690918 3.40405273 C-4.79763276 0.71490143 -3.50982256 0.02651002 0 0 Z " fill="#050202" transform="translate(258.069091796875,214.595947265625)"/>
<path d="M0 0 C0.495 1.485 0.495 1.485 1 3 C-1.30820508 4.15410254 -2.60784276 4.1210297 -5.17431641 4.11352539 C-6.46542831 4.11341209 -6.46542831 4.11341209 -7.78262329 4.11329651 C-8.71287323 4.10813522 -9.64312317 4.10297394 -10.6015625 4.09765625 C-11.55316254 4.0962413 -12.50476257 4.09482635 -13.48519897 4.09336853 C-16.53183097 4.08776012 -19.57839013 4.07520619 -22.625 4.0625 C-24.68749894 4.05748608 -26.74999903 4.05292299 -28.8125 4.04882812 C-33.87502817 4.03778796 -38.93750173 4.02051767 -44 4 C-44.66 5.65 -45.32 7.3 -46 9 C-48.31 12.63 -50.62 16.26 -53 20 C-34.85 20.33 -16.7 20.66 2 21 C2 21.33 2 21.66 2 22 C-17.14 22 -36.28 22 -56 22 C-55.15587866 18.62351465 -54.62762439 17.1312283 -52.78515625 14.3984375 C-52.34623047 13.74359375 -51.90730469 13.08875 -51.45507812 12.4140625 C-50.99552734 11.74117188 -50.53597656 11.06828125 -50.0625 10.375 C-49.60681641 9.694375 -49.15113281 9.01375 -48.68164062 8.3125 C-46.8975691 5.66904409 -45.2613094 3.2613094 -43 1 C-41.12704468 0.7215271 -41.12704468 0.7215271 -38.82568359 0.68115234 C-37.96494232 0.66128265 -37.10420105 0.64141296 -36.21737671 0.62094116 C-34.8220018 0.60361435 -34.8220018 0.60361435 -33.3984375 0.5859375 C-32.44683746 0.56657135 -31.49523743 0.5472052 -30.51480103 0.5272522 C-27.46829253 0.46735868 -24.42174646 0.42103205 -21.375 0.375 C-19.3124833 0.33682921 -17.2499827 0.29777802 -15.1875 0.2578125 C-10.12513034 0.16164914 -5.06268605 0.07765437 0 0 Z " fill="#231514" transform="translate(352,263)"/>
<path d="M0 0 C1.57382446 0.02018188 1.57382446 0.02018188 3.17944336 0.04077148 C4.32606445 0.04786133 5.47268555 0.05495117 6.65405273 0.06225586 C8.44359375 0.1115625 8.44359375 0.1115625 10.26928711 0.16186523 C11.46618164 0.16766602 12.66307617 0.1734668 13.89624023 0.17944336 C22.76404135 0.30420139 22.76404135 0.30420139 26.20678711 2.59936523 C25.84024474 8.79266739 25.09574135 14.87420354 23.95678711 20.97436523 C23.74538086 22.11647461 23.53397461 23.25858398 23.31616211 24.43530273 C21.87671098 28.54077955 20.85239474 30.1523755 17.20678711 32.59936523 C13.14747145 33.25159236 9.18224828 33.16060696 5.08178711 33.03686523 C3.98479492 33.03106445 2.88780273 33.02526367 1.75756836 33.01928711 C-6.34985045 32.8949402 -6.34985045 32.8949402 -9.79321289 30.59936523 C-11.12062016 26.31081868 -10.62910229 23.14472938 -9.39086914 18.88061523 C-8.47291194 15.3767786 -8.03886312 11.79877277 -7.55102539 8.21264648 C-6.31112035 3.93689148 -4.49938503 0.96547419 0 0 Z M-4.79321289 4.59936523 C-5.8380518 6.5923374 -5.8380518 6.5923374 -6.15649414 8.99389648 C-6.40302734 10.30390625 -6.40302734 10.30390625 -6.65454102 11.64038086 C-6.80342773 12.5549707 -6.95231445 13.46956055 -7.10571289 14.41186523 C-7.27393555 15.31485352 -7.4421582 16.2178418 -7.61547852 17.14819336 C-8.38736304 21.43609064 -8.79321289 25.20312324 -8.79321289 29.59936523 C0.44678711 29.59936523 9.68678711 29.59936523 19.20678711 29.59936523 C23.46610313 16.89402561 23.46610313 16.89402561 24.20678711 3.59936523 C21.75164817 1.14422629 15.25464636 2.4138591 11.95678711 2.41186523 C10.3809082 2.39349609 10.3809082 2.39349609 8.77319336 2.37475586 C7.75612305 2.37282227 6.73905273 2.37088867 5.69116211 2.36889648 C4.29462402 2.36273315 4.29462402 2.36273315 2.86987305 2.35644531 C-0.111995 2.62844373 -2.17788634 3.12954317 -4.79321289 4.59936523 Z " fill="#0B0505" transform="translate(262.793212890625,234.400634765625)"/>
<path d="M0 0 C1.66869141 -0.00193359 1.66869141 -0.00193359 3.37109375 -0.00390625 C4.53769531 -0.00003906 5.70429688 0.00382813 6.90625 0.0078125 C8.07285156 0.00394531 9.23945313 0.00007812 10.44140625 -0.00390625 C11.55386719 -0.00261719 12.66632813 -0.00132812 13.8125 0 C14.83666016 0.00112793 15.86082031 0.00225586 16.91601562 0.00341797 C19.40625 0.1328125 19.40625 0.1328125 21.40625 1.1328125 C20.57968515 14.37960181 20.57968515 14.37960181 18.40625 20.1328125 C15.76627351 21.45280075 13.76547683 21.26237282 10.8125 21.265625 C9.14380859 21.26755859 9.14380859 21.26755859 7.44140625 21.26953125 C6.27480469 21.26566406 5.10820312 21.26179688 3.90625 21.2578125 C2.73964844 21.26167969 1.57304687 21.26554687 0.37109375 21.26953125 C-0.74136719 21.26824219 -1.85382813 21.26695312 -3 21.265625 C-4.02416016 21.26449707 -5.04832031 21.26336914 -6.10351562 21.26220703 C-8.59375 21.1328125 -8.59375 21.1328125 -10.59375 20.1328125 C-11.04141166 13.56710818 -9.73073108 7.34770242 -7.59375 1.1328125 C-4.95377351 -0.18717575 -2.95297683 0.00325218 0 0 Z M-6.59375 3.1328125 C-8.87670823 10.89027687 -8.87670823 10.89027687 -8.59375 18.1328125 C-0.01375 18.1328125 8.56625 18.1328125 17.40625 18.1328125 C19.77254484 11.06413222 19.77254484 11.06413222 19.40625 3.1328125 C10.82625 3.1328125 2.24625 3.1328125 -6.59375 3.1328125 Z " fill="#100102" transform="translate(212.59375,239.8671875)"/>
<path d="M0 0 C2.25732422 -0.27832031 2.25732422 -0.27832031 5 0 C6.98876953 1.86425781 6.98876953 1.86425781 8.8828125 4.453125 C9.57503906 5.38253906 10.26726562 6.31195313 10.98046875 7.26953125 C11.68816406 8.25308594 12.39585937 9.23664063 13.125 10.25 C14.19814453 11.70212891 14.19814453 11.70212891 15.29296875 13.18359375 C16.62584674 14.98983028 17.95223665 16.80088521 19.27001953 18.61816406 C19.84091309 19.40416992 20.41180664 20.19017578 21 21 C21.67615356 22.12535156 21.67615356 22.12535156 22.3659668 23.2734375 C23.92037429 25.24543897 23.92037429 25.24543897 26.63549805 25.54589844 C28.18297729 25.57731934 28.18297729 25.57731934 29.76171875 25.609375 C30.87998047 25.64160156 31.99824219 25.67382812 33.15039062 25.70703125 C34.31763672 25.72121094 35.48488281 25.73539062 36.6875 25.75 C38.45577148 25.79447266 38.45577148 25.79447266 40.25976562 25.83984375 C43.17324632 25.91061656 46.08592336 25.96327725 49 26 C49 26.33 49 26.66 49 27 C26.8835108 29.95904376 26.8835108 29.95904376 20.91601562 26.94873047 C17.70518381 24.13777162 15.7821029 20.60541436 13.92382812 16.80859375 C12.44652124 13.91644538 10.53882892 11.36602514 8.625 8.75 C8.01914063 7.85796875 7.41328125 6.9659375 6.7890625 6.046875 C4.85261154 3.83137216 3.87628248 3.32944205 1 3 C0.87882812 4.05058594 0.75765625 5.10117187 0.6328125 6.18359375 C0.46377973 7.6015909 0.29449529 9.01955806 0.125 10.4375 C0.04636719 11.12521484 -0.03226563 11.81292969 -0.11328125 12.52148438 C-0.75561873 17.83312119 -1.82580842 22.7161379 -3 28 C-9.27 27.67 -15.54 27.34 -22 27 C-22 26.67 -22 26.34 -22 26 C-16.06 26 -10.12 26 -4 26 C-3.896875 24.494375 -3.79375 22.98875 -3.6875 21.4375 C-3.04264931 14.17344658 -1.52758218 7.11910939 0 0 Z " fill="#1C1211" transform="translate(164,258)"/>
<path d="M0 0 C-5.73041348 4.13122832 -9.74045381 5.12925405 -16.70825195 5.11352539 C-17.82903641 5.11344986 -18.94982086 5.11337433 -20.10456848 5.11329651 C-21.3036937 5.10813522 -22.50281891 5.10297394 -23.73828125 5.09765625 C-24.97418503 5.0962413 -26.21008881 5.09482635 -27.48344421 5.09336853 C-30.75658345 5.08872618 -34.02967287 5.07975311 -37.30279541 5.06866455 C-40.64782248 5.05840404 -43.99285173 5.05394631 -47.33789062 5.04882812 C-53.8919465 5.03780907 -60.44596918 5.02107836 -67 5 C-67.33 4.34 -67.66 3.68 -68 3 C-66.95882774 2.99120064 -66.95882774 2.99120064 -65.8966217 2.98222351 C-59.32109407 2.92406333 -52.74588339 2.85185551 -46.17067814 2.76428509 C-42.79113766 2.71975971 -39.41171278 2.68046594 -36.03198242 2.65356445 C-32.13691389 2.61986885 -28.24246297 2.56754295 -24.34765625 2.51171875 C-23.1473024 2.50532883 -21.94694855 2.4989389 -20.71022034 2.49235535 C-14.55737582 2.3855688 -9.41253897 1.90006586 -3.69480896 -0.45939636 C-2 -1 -2 -1 0 0 Z " fill="#000000" transform="translate(365,282)"/>
<path d="M0 0 C1.10068817 0.00007553 2.20137634 0.00015106 3.3354187 0.00022888 C5.09355392 0.00797081 5.09355392 0.00797081 6.88720703 0.01586914 C8.09949982 0.01728409 9.3117926 0.01869904 10.56082153 0.02015686 C14.42224626 0.02574194 18.28361241 0.03829178 22.14501953 0.05102539 C24.76741453 0.05604232 27.38981043 0.06060489 30.01220703 0.06469727 C36.43149775 0.0757065 42.85075446 0.09242984 49.27001953 0.11352539 C48.94001953 1.10352539 48.61001953 2.09352539 48.27001953 3.11352539 C27.81001953 3.11352539 7.35001953 3.11352539 -13.72998047 3.11352539 C-10.10210448 -0.5143506 -4.90332391 -0.01129798 0 0 Z " fill="#BC4C4F" transform="translate(334.72998046875,216.886474609375)"/>
<path d="M0 0 C13.53 0 27.06 0 41 0 C40.67 0.99 40.34 1.98 40 3 C34.94629268 3.02474322 29.89262074 3.04288053 24.83886719 3.05493164 C23.12011094 3.0599563 21.40135895 3.0667771 19.68261719 3.07543945 C17.21027574 3.0875868 14.73799088 3.09324703 12.265625 3.09765625 C11.11540863 3.10539818 11.11540863 3.10539818 9.94195557 3.11329651 C6.45150385 3.11366245 3.35725527 2.93752738 0 2 C0 1.34 0 0.68 0 0 Z " fill="#140D0C" transform="translate(244,284)"/>
<path d="M0 0 C2.91513158 2.67050516 5.13503548 5.02956226 7.015625 8.515625 C9.44105495 12.72725011 11.78586059 16.41175871 16 19 C24.11257043 21.03116118 32.71265298 20.50955018 41 20 C41 20.33 41 20.66 41 21 C18.77244514 23.97390363 18.77244514 23.97390363 12.86767578 20.88427734 C9.16181574 17.58101296 7.14269451 13.41262741 5 9 C3.99034726 7.58083775 2.95553844 6.17846369 1.875 4.8125 C0 2 0 2 0 0 Z " fill="#1D1312" transform="translate(172,264)"/>
<path d="M0 0 C7.92 0 15.84 0 24 0 C23.34 1.32 22.68 2.64 22 4 C21.67 3.34 21.34 2.68 21 2 C13.74 2 6.48 2 -1 2 C-0.67 1.34 -0.34 0.68 0 0 Z " fill="#B9494B" transform="translate(194,217)"/>
<path d="M0 0 C0.99 0.33 1.98 0.66 3 1 C-1.62 5.62 -6.24 10.24 -11 15 C-11.66 14.34 -12.32 13.68 -13 13 C-8.71 8.71 -4.42 4.42 0 0 Z " fill="#120808" transform="translate(191,217)"/>
<path d="M0 0 C0.33 0.66 0.66 1.32 1 2 C0.22729492 3.69580078 0.22729492 3.69580078 -1.01953125 5.6953125 C-1.46490234 6.41074219 -1.91027344 7.12617188 -2.36914062 7.86328125 C-2.84544922 8.60964844 -3.32175781 9.35601562 -3.8125 10.125 C-4.27720703 10.87910156 -4.74191406 11.63320313 -5.22070312 12.41015625 C-7.83320895 16.555682 -7.83320895 16.555682 -9 18 C-9.66 18 -10.32 18 -11 18 C-11.33 18.66 -11.66 19.32 -12 20 C-11.39235744 17.00265444 -10.46199224 14.88962107 -8.75 12.36328125 C-8.3065625 11.70392578 -7.863125 11.04457031 -7.40625 10.36523438 C-6.9421875 9.68783203 -6.478125 9.01042969 -6 8.3125 C-5.5359375 7.62349609 -5.071875 6.93449219 -4.59375 6.22460938 C-1.18332067 1.18332067 -1.18332067 1.18332067 0 0 Z " fill="#0C0303" transform="translate(308,265)"/>
<path d="M0 0 C5.61 0 11.22 0 17 0 C16.34 4.62 15.68 9.24 15 14 C14.67 14 14.34 14 14 14 C13.91615922 9.72412002 14.15271797 6.23641013 15 2 C10.05 1.67 5.1 1.34 0 1 C0 0.67 0 0.34 0 0 Z " fill="#A74749" transform="translate(154,217)"/>
<path d="M0 0 C2.25 -0.375 2.25 -0.375 5 0 C7.3125 3 7.3125 3 9 6 C8.01 6 7.02 6 6 6 C5.67 5.34 5.34 4.68 5 4 C2.97536745 3.34786708 2.97536745 3.34786708 1 3 C0.67 3.99 0.34 4.98 0 6 C-1 3 -1 3 0 0 Z " fill="#100303" transform="translate(164,258)"/>
<path d="M0 0 C0.66 0 1.32 0 2 0 C0.22054913 4.04420651 -2.39529673 7.46078487 -5 11 C-5.33 10.01 -5.66 9.02 -6 8 C-4.85546875 5.95703125 -4.85546875 5.95703125 -3.1875 3.8125 C-2.37345703 2.73935547 -2.37345703 2.73935547 -1.54296875 1.64453125 C-1.03378906 1.10183594 -0.52460938 0.55914062 0 0 Z " fill="#0E0707" transform="translate(379,224)"/>
<path d="M0 0 C0.33 0 0.66 0 1 0 C1.33 1.65 1.66 3.3 2 5 C2.99 5 3.98 5 5 5 C3.6875 6.5 3.6875 6.5 2 8 C1.01 8 0.02 8 -1 8 C-0.67 5.36 -0.34 2.72 0 0 Z " fill="#000101" transform="translate(168,234)"/>
</svg>
